<svg width="527" height="124" viewBox="0 0 527 124" fill="none" xmlns="http://www.w3.org/2000/svg">
<g clip-path="url(#clip0_20_819)">
<path d="M177.169 41.395V41.593C177.169 41.593 177.169 41.5348 177.169 41.5115C177.169 41.5115 177.181 41.5814 177.169 41.6163V41.5348C177.169 41.5348 177.134 41.2435 177.169 41.395V41.395Z" fill="url(#paint0_radial_20_819)"/>
<g opacity="0.98">
<path d="M288.727 76.911L285.484 67.8706H266.962L263.753 76.911H253.142L271.324 29.2004H280.794L299.575 76.911H288.727V76.911ZM276.183 41.8118L270.149 58.8303H282.297L276.183 41.8118Z" fill="#0E2744"/>
<path d="M343.624 39.2127C347.127 39.1223 350.495 40.6253 352.755 43.3035C355.196 46.2416 356.462 49.9821 356.303 53.8016V76.9111H346.619V55.4402C346.619 50.4567 344.8 47.9706 341.172 47.9593C338.449 47.8576 335.985 49.5639 335.126 52.1517C334.561 53.7225 334.29 55.3837 334.324 57.0562V76.9224H324.854V55.4515C324.854 50.468 323.103 47.9819 319.611 47.9706C318.616 47.9254 317.633 48.1175 316.729 48.5356C315.848 48.9537 315.068 49.5865 314.469 50.355C313.124 52.31 312.469 54.6605 312.616 57.0336V76.9224H302.897V40.1055H311.463V44.6256C312.763 42.9645 314.401 41.6084 316.266 40.6366C318.097 39.676 320.142 39.1675 322.21 39.1675C324.357 39.1336 326.459 39.676 328.324 40.7383C330.132 41.7666 331.612 43.2696 332.595 45.1003C333.013 44.49 333.476 43.9024 333.985 43.36C334.471 42.8628 334.991 42.3994 335.544 41.9813C336.121 41.5632 336.72 41.1903 337.341 40.8513C337.963 40.501 338.618 40.2185 339.296 40.0037C339.986 39.7664 340.698 39.5856 341.421 39.45C342.144 39.3031 342.878 39.224 343.624 39.2127V39.2127Z" fill="#0E2744"/>
<path d="M382.645 39.077C387.73 38.9301 392.634 40.9416 396.149 44.6029C399.731 48.3208 401.664 53.3382 401.494 58.5025C401.652 63.6668 399.731 68.6842 396.149 72.4134C392.623 76.0747 387.719 78.0749 382.645 77.928C378.531 77.9958 374.531 76.538 371.423 73.8372V76.9109H363.129V26.8047H372.825V42.0716C375.706 40.0714 379.142 39.0318 382.645 39.077ZM374.881 65.7122C376.701 67.5994 379.232 68.6503 381.854 68.5825C384.487 68.6616 387.029 67.622 388.837 65.7122C390.679 63.7911 391.674 61.2146 391.595 58.559C391.629 56.7735 391.211 54.9993 390.397 53.406C389.606 51.8917 388.397 50.6374 386.905 49.7898C383.786 48.0609 380.001 48.0609 376.882 49.7898C375.39 50.6374 374.181 51.8917 373.367 53.406C372.508 54.9993 372.079 56.7735 372.101 58.5816C372.068 59.8924 372.294 61.2033 372.768 62.4351C373.243 63.6555 373.966 64.7742 374.881 65.7122Z" fill="#0E2744"/>
<path d="M406.466 76.9108V40.1052H416.162V76.9108H406.466Z" fill="#0E2744"/>
<path d="M458.245 58.367C458.245 59.3501 458.166 60.322 458.042 61.2938H430.92C431.158 63.4974 432.186 65.5428 433.802 67.057C435.463 68.4696 437.588 69.2041 439.769 69.1024C441.328 69.125 442.854 68.7295 444.21 67.9724C445.521 67.2492 446.594 66.1756 447.329 64.8761H457.556C456.358 68.6956 453.985 72.0406 450.775 74.425C447.589 76.7754 443.724 78.0072 439.769 77.9281C434.751 78.0524 429.915 76.0183 426.491 72.3457C422.954 68.6165 421.044 63.633 421.179 58.5026C421.179 56.3781 421.473 54.2649 422.084 52.2308C422.649 50.3098 423.519 48.5017 424.671 46.8631C425.779 45.3037 427.112 43.9137 428.626 42.7384C430.163 41.5632 431.892 40.6592 433.734 40.0489C435.689 39.4048 437.723 39.0884 439.78 39.0997C443.182 39.0432 446.526 39.9359 449.442 41.6875C452.233 43.3826 454.493 45.8348 455.951 48.7616C457.477 51.7562 458.245 55.0673 458.211 58.4235L458.245 58.367V58.367ZM439.769 47.5298C437.78 47.4733 435.836 48.1175 434.288 49.3718C432.74 50.694 431.678 52.4907 431.271 54.4796H448.583C448.21 53.101 447.555 51.8127 446.662 50.7053C445.848 49.6995 444.82 48.8972 443.645 48.3548C442.424 47.8011 441.102 47.5185 439.769 47.5298V47.5298Z" fill="#0E2744"/>
<path d="M483.592 39.2127C487.287 39.0545 490.847 40.5913 493.254 43.4052C495.616 46.2077 496.802 49.9368 496.802 54.6265V76.911H487.118V56.186C487.118 50.694 485.038 47.9479 480.891 47.9366C479.388 47.8914 477.897 48.287 476.608 49.0667C475.354 49.8803 474.371 51.0669 473.817 52.4568C473.139 54.0728 472.811 55.8244 472.857 57.5759V76.911H463.149V40.1054H471.715V44.6256C472.371 43.7781 473.128 43.021 473.975 42.3655C475.761 41.0095 477.817 40.0489 480.01 39.563C481.185 39.3144 482.372 39.1901 483.569 39.2014H483.592V39.2127Z" fill="#0E2744"/>
<path d="M522.025 68.0513C520.522 68.1417 519.041 67.6106 517.945 66.5822C516.94 65.4522 516.42 63.9718 516.521 62.4575V48.0721H526.206V40.0939H516.318V30.4885H506.848V40.1052H500.362V48.0833H506.848V63.7684C506.792 66.2093 507.312 68.6276 508.374 70.8199C509.346 72.741 510.883 74.3117 512.781 75.3401C514.872 76.4249 517.211 76.9673 519.561 76.9108H526.398V68.0513H522.025V68.0513Z" fill="#0E2744"/>
</g>
<path d="M256.182 100.066H261.527V102.925H253.153V88.6973H256.182V100.066Z" fill="url(#paint1_linear_20_819)"/>
<path d="M308.57 102.925V88.6973H311.621V102.925H308.57Z" fill="url(#paint2_linear_20_819)"/>
<path d="M362.575 95.4888H370C370.079 97.5342 369.367 99.5231 368.011 101.049C367.367 101.761 366.576 102.326 365.694 102.71C364.802 103.083 363.841 103.264 362.881 103.241C361.92 103.264 360.971 103.083 360.089 102.721C359.208 102.36 358.406 101.817 357.739 101.139C357.05 100.438 356.518 99.6135 356.168 98.6981C355.513 96.8449 355.513 94.8221 356.168 92.9688C356.518 92.0535 357.038 91.2172 357.716 90.5053C358.383 89.816 359.174 89.2736 360.055 88.9006C360.937 88.539 361.886 88.3695 362.835 88.3921C364.463 88.3695 366.056 88.9007 367.356 89.8838C368.621 90.8443 369.491 92.2456 369.785 93.8051H366.678C366.497 93.3078 366.203 92.8445 365.819 92.4716C365.446 92.0987 364.994 91.8049 364.497 91.6015C363.965 91.3981 363.412 91.2964 362.847 91.2964C362.293 91.285 361.739 91.3868 361.219 91.6015C360.7 91.8162 360.236 92.1439 359.863 92.562C359.084 93.466 358.677 94.63 358.733 95.8165C358.733 96.5963 358.903 97.3647 359.231 98.0766C359.558 98.7321 360.067 99.2858 360.7 99.6587C361.355 100.054 362.112 100.246 362.881 100.235C363.457 100.235 364.033 100.133 364.576 99.9299C365.084 99.7378 365.547 99.444 365.943 99.0598C366.305 98.6982 366.587 98.2687 366.768 97.7941H362.587V95.4888H362.575Z" fill="url(#paint3_linear_20_819)"/>
<path d="M418.208 88.6973H421.202V102.925H418.208V97.0596H412.964V102.925H409.947V88.6973H412.964V94.1893H418.208V88.6973Z" fill="url(#paint4_linear_20_819)"/>
<path d="M473.67 88.6973V91.5676H469.828V102.925H466.8V91.5676H462.935V88.6973H473.67Z" fill="url(#paint5_linear_20_819)"/>
<path d="M521.132 103.207C519.708 103.275 518.318 102.8 517.222 101.896C516.736 101.444 516.341 100.89 516.092 100.269C515.832 99.6474 515.708 98.9807 515.742 98.3027H518.793C518.793 98.6191 518.849 98.9242 518.985 99.2067C519.098 99.4553 519.268 99.6813 519.482 99.8509C519.708 100.009 519.957 100.133 520.228 100.212C520.511 100.303 520.816 100.337 521.11 100.337C521.675 100.337 522.217 100.19 522.692 99.8848C522.895 99.7604 523.065 99.5796 523.189 99.3649C523.302 99.1502 523.358 98.9129 523.358 98.6756C523.358 98.4722 523.302 98.2688 523.2 98.088C523.11 97.9298 522.974 97.7829 522.827 97.6812C522.635 97.5456 522.42 97.4439 522.194 97.3648L521.46 97.1274L520.567 96.9014L519.844 96.7206L519.143 96.5172C518.895 96.4381 518.657 96.359 518.42 96.2573L517.776 95.9409C517.55 95.8392 517.346 95.7036 517.166 95.5454C517.007 95.3985 516.849 95.229 516.668 95.0369C516.499 94.8447 516.352 94.63 516.25 94.3927C516.149 94.1441 516.07 93.8842 516.013 93.6243C515.945 93.3192 515.911 93.0141 515.911 92.6977C515.877 92.11 515.99 91.5111 516.228 90.9687C516.454 90.415 516.815 89.929 517.267 89.5448C518.33 88.7538 519.64 88.347 520.974 88.4148C522.319 88.3357 523.641 88.7651 524.669 89.6352C525.121 90.0646 525.472 90.5958 525.698 91.1721C525.935 91.7484 526.025 92.3699 525.991 92.9915H523.008C523.019 92.7429 522.974 92.4829 522.861 92.2569C522.759 92.0196 522.601 91.8162 522.398 91.6693C521.968 91.3529 521.437 91.1834 520.906 91.206C520.42 91.1947 519.946 91.3077 519.516 91.545C519.335 91.6467 519.177 91.7823 519.075 91.9631C518.974 92.1439 518.929 92.3473 518.929 92.5508C518.929 92.7429 518.974 92.9237 519.075 93.0819C519.166 93.2288 519.29 93.3644 519.426 93.4774C519.618 93.6017 519.833 93.7034 520.047 93.7825L520.748 94.0085L521.618 94.2119L522.579 94.4718L523.494 94.7769C523.822 94.8786 524.127 95.0256 524.421 95.1951C524.692 95.3533 524.94 95.5341 525.189 95.7262C525.449 95.9296 525.675 96.1782 525.856 96.4607C526.025 96.7658 526.161 97.0822 526.251 97.4213C526.918 99.557 525.844 101.851 523.776 102.71C522.94 103.049 522.047 103.207 521.155 103.196H521.132V103.207Z" fill="url(#paint6_linear_20_819)"/>
<path d="M424.163 16.2275C419.812 18.4876 417.157 20.1035 415.823 21.9568C415.247 22.7365 414.896 23.6519 414.783 24.6124C414.501 26.8725 415.371 29.8558 417.044 34.5229V34.5794H416.931C414.67 30.2174 413.043 27.5618 411.167 26.2171C410.399 25.6408 409.484 25.2791 408.523 25.1661C406.263 24.8949 403.268 25.7651 398.624 27.4262C398.579 27.4262 398.545 27.3923 398.545 27.3471C398.545 27.3019 398.579 27.268 398.624 27.268C402.974 25.0079 405.63 23.4033 406.986 21.55C407.574 20.7702 407.924 19.8436 408.026 18.8718C408.32 16.6117 407.449 13.6397 405.766 8.97256C405.766 8.89346 405.867 8.81436 405.924 8.91606C408.184 13.2667 409.8 15.9337 411.642 17.2897C412.422 17.866 413.348 18.2163 414.309 18.318C416.569 18.6119 419.564 17.7304 424.197 16.058H424.253L424.163 16.2275V16.2275Z" fill="url(#paint7_linear_20_819)"/>
<path d="M424.298 26.9178C419.609 25.4601 416.603 24.6577 414.331 25.0645C413.382 25.2001 412.478 25.5844 411.732 26.1946C409.913 27.5958 408.421 30.3193 406.286 34.7716H406.218V34.7038C407.687 29.9915 408.478 26.9969 408.071 24.7368C407.935 23.7763 407.551 22.8723 406.941 22.1151C405.528 20.307 402.805 18.8154 398.364 16.6909C398.364 16.6909 398.353 16.6457 398.364 16.6231H398.42C403.121 18.0809 406.116 18.8832 408.399 18.499C409.359 18.3747 410.263 17.9792 411.009 17.3689C412.829 15.979 414.309 13.2556 416.456 8.80317C416.456 8.71277 416.637 8.80317 416.614 8.87098C415.145 13.5607 414.354 16.5779 414.738 18.838C414.874 19.7985 415.258 20.7026 415.868 21.4597C417.27 23.2678 419.993 24.7594 424.434 26.8839L424.298 26.9178V26.9178Z" fill="url(#paint8_linear_20_819)"/>
<path d="M223.93 68.0627H199.804L137.018 18.6119L24.183 105.332H0L137.018 0L223.93 68.0627Z" fill="url(#paint9_linear_20_819)"/>
<path d="M224.438 73.6225L188.898 100.981L121.096 48.7615H145.256L188.898 82.3577L200.267 73.6225H224.438Z" fill="#0E2744"/>
<path d="M180.988 105.332H156.828L109.795 69.1023L62.7967 105.264H38.6589L109.852 50.4565L180.988 105.332Z" fill="#0E2744"/>
<path d="M108.371 93.1724H102.721V98.8226H108.371V93.1724Z" fill="#0E2744"/>
<path d="M116.926 93.1724H111.276V98.8226H116.926V93.1724Z" fill="#0E2744"/>
<path d="M108.371 101.433H102.721V107.083H108.371V101.433Z" fill="#0E2744"/>
<path d="M116.926 101.433H111.276V107.083H116.926V101.433Z" fill="#0E2744"/>
<path d="M109.976 77.6907C111.016 77.6907 111.852 76.8545 111.852 75.8148C111.852 74.7752 111.016 73.939 109.976 73.939C108.937 73.939 108.1 74.7752 108.1 75.8148C108.1 75.8374 108.1 75.86 108.1 75.8826C108.134 76.8997 108.959 77.702 109.976 77.6907Z" fill="url(#paint10_linear_20_819)"/>
<path d="M117.344 83.3183C118.384 83.307 119.209 82.4594 119.197 81.4198C119.186 80.3802 118.338 79.5552 117.299 79.5665C116.27 79.5778 115.446 80.4141 115.446 81.4424C115.446 82.4707 116.27 83.307 117.299 83.3183C117.31 83.3183 117.333 83.3183 117.344 83.3183V83.3183Z" fill="url(#paint11_linear_20_819)"/>
<path d="M124.701 88.9346C125.74 88.9346 126.576 88.1097 126.588 87.07C126.588 86.0304 125.763 85.1942 124.723 85.1829C123.683 85.1829 122.847 86.0078 122.836 87.0474C122.836 88.0758 123.672 88.912 124.701 88.9233V88.9346Z" fill="url(#paint12_linear_20_819)"/>
<path d="M132.08 94.5623C133.119 94.5623 133.956 93.7261 133.956 92.6864C133.956 91.6468 133.119 90.8105 132.08 90.8105C131.04 90.8105 130.204 91.6468 130.204 92.6864C130.204 93.7148 131.029 94.551 132.057 94.5623C132.057 94.5623 132.068 94.5623 132.08 94.5623Z" fill="url(#paint13_linear_20_819)"/>
<path d="M139.436 100.179C140.476 100.179 141.312 99.3536 141.324 98.3139C141.335 97.2743 140.499 96.4381 139.459 96.4268C138.419 96.4268 137.583 97.2517 137.572 98.2913C137.572 98.2913 137.572 98.3026 137.572 98.3139C137.572 99.3423 138.408 100.179 139.436 100.179Z" fill="url(#paint14_linear_20_819)"/>
<path d="M146.804 105.806C147.844 105.806 148.68 104.981 148.691 103.942C148.691 102.902 147.867 102.066 146.827 102.054C145.787 102.054 144.951 102.879 144.94 103.919C144.94 104.947 145.776 105.784 146.804 105.795V105.806Z" fill="url(#paint15_linear_20_819)"/>
<path d="M102.608 83.3183C103.648 83.3296 104.495 82.5046 104.507 81.465C104.518 80.4253 103.693 79.5778 102.653 79.5665C101.614 79.5552 100.766 80.3802 100.755 81.4198C100.755 81.4198 100.755 81.4311 100.755 81.4424C100.755 82.4707 101.58 83.307 102.608 83.3183V83.3183Z" fill="url(#paint16_linear_20_819)"/>
<path d="M95.2403 88.9346C96.28 88.9346 97.1162 88.1097 97.1275 87.07C97.1388 86.0304 96.3026 85.1942 95.2629 85.1829C94.2233 85.1829 93.387 86.0078 93.3757 87.0474C93.3757 88.0758 94.2007 88.912 95.229 88.9233C95.229 88.9233 95.229 88.9233 95.2403 88.9233V88.9346Z" fill="url(#paint17_linear_20_819)"/>
<path d="M87.8725 94.5623C88.9121 94.5623 89.7483 93.7261 89.7483 92.6864C89.7483 91.6468 88.9121 90.8105 87.8725 90.8105C86.8328 90.8105 85.9966 91.6468 85.9966 92.6864C85.9966 93.7148 86.8215 94.551 87.8499 94.5623C87.8499 94.5623 87.8612 94.5623 87.8725 94.5623Z" fill="url(#paint18_linear_20_819)"/>
<path d="M80.5045 100.179C81.5442 100.179 82.3804 99.3423 82.3804 98.3026C82.3804 97.263 81.5442 96.4268 80.5045 96.4268C79.4649 96.4268 78.6287 97.263 78.6287 98.3026C78.6287 99.331 79.4649 100.167 80.4932 100.167C80.4932 100.167 80.4932 100.167 80.5045 100.167V100.179Z" fill="url(#paint19_linear_20_819)"/>
<path d="M73.1367 105.806C74.165 105.885 75.069 105.117 75.1481 104.077C75.2273 103.038 74.4588 102.145 73.4192 102.066C73.3175 102.066 73.2271 102.066 73.1254 102.066C72.097 102.145 71.3173 103.049 71.3964 104.077C71.4642 105.004 72.1987 105.727 73.1254 105.806H73.1367Z" fill="url(#paint20_linear_20_819)"/>
<path d="M109.976 77.6907C111.016 77.6907 111.852 76.8545 111.852 75.8148C111.852 74.7752 111.016 73.939 109.976 73.939C108.937 73.939 108.1 74.7752 108.1 75.8148C108.1 75.8374 108.1 75.86 108.1 75.8826C108.134 76.8997 108.959 77.702 109.976 77.6907Z" fill="url(#paint21_linear_20_819)"/>
<path d="M117.344 83.3183C118.384 83.307 119.209 82.4594 119.197 81.4198C119.186 80.3802 118.338 79.5552 117.299 79.5665C116.27 79.5778 115.446 80.4141 115.446 81.4424C115.446 82.4707 116.27 83.307 117.299 83.3183C117.31 83.3183 117.333 83.3183 117.344 83.3183V83.3183Z" fill="url(#paint22_linear_20_819)"/>
<path d="M124.701 88.9346C125.74 88.9346 126.576 88.1097 126.588 87.07C126.588 86.0304 125.763 85.1942 124.723 85.1829C123.683 85.1829 122.847 86.0078 122.836 87.0474C122.836 88.0758 123.672 88.912 124.701 88.9233V88.9346Z" fill="url(#paint23_linear_20_819)"/>
<path d="M132.08 94.5623C133.119 94.5623 133.956 93.7261 133.956 92.6864C133.956 91.6468 133.119 90.8105 132.08 90.8105C131.04 90.8105 130.204 91.6468 130.204 92.6864C130.204 93.7148 131.029 94.551 132.057 94.5623C132.057 94.5623 132.068 94.5623 132.08 94.5623Z" fill="url(#paint24_linear_20_819)"/>
<path d="M139.436 100.179C140.476 100.179 141.312 99.3536 141.324 98.3139C141.335 97.2743 140.499 96.4381 139.459 96.4268C138.419 96.4268 137.583 97.2517 137.572 98.2913C137.572 98.2913 137.572 98.3026 137.572 98.3139C137.572 99.3423 138.408 100.179 139.436 100.179Z" fill="url(#paint25_linear_20_819)"/>
<path d="M146.804 105.806C147.844 105.806 148.68 104.981 148.691 103.942C148.691 102.902 147.867 102.066 146.827 102.054C145.787 102.054 144.951 102.879 144.94 103.919C144.94 104.947 145.776 105.784 146.804 105.795V105.806Z" fill="url(#paint26_linear_20_819)"/>
<path d="M102.608 83.3183C103.648 83.3296 104.495 82.5046 104.507 81.465C104.518 80.4253 103.693 79.5778 102.653 79.5665C101.614 79.5552 100.766 80.3802 100.755 81.4198C100.755 81.4198 100.755 81.4311 100.755 81.4424C100.755 82.4707 101.58 83.307 102.608 83.3183V83.3183Z" fill="url(#paint27_linear_20_819)"/>
<path d="M95.2403 88.9346C96.28 88.9346 97.1162 88.1097 97.1275 87.07C97.1388 86.0304 96.3026 85.1942 95.2629 85.1829C94.2233 85.1829 93.387 86.0078 93.3757 87.0474C93.3757 88.0758 94.2007 88.912 95.229 88.9233C95.229 88.9233 95.229 88.9233 95.2403 88.9233V88.9346Z" fill="url(#paint28_linear_20_819)"/>
<path d="M87.8725 94.5623C88.9121 94.5623 89.7483 93.7261 89.7483 92.6864C89.7483 91.6468 88.9121 90.8105 87.8725 90.8105C86.8328 90.8105 85.9966 91.6468 85.9966 92.6864C85.9966 93.7148 86.8215 94.551 87.8499 94.5623C87.8499 94.5623 87.8612 94.5623 87.8725 94.5623Z" fill="url(#paint29_linear_20_819)"/>
<path d="M80.5045 100.179C81.5442 100.179 82.3804 99.3423 82.3804 98.3026C82.3804 97.263 81.5442 96.4268 80.5045 96.4268C79.4649 96.4268 78.6287 97.263 78.6287 98.3026C78.6287 99.331 79.4649 100.167 80.4932 100.167C80.4932 100.167 80.4932 100.167 80.5045 100.167V100.179Z" fill="url(#paint30_linear_20_819)"/>
<path d="M73.1367 105.806C74.165 105.885 75.069 105.117 75.1481 104.077C75.2273 103.038 74.4588 102.145 73.4192 102.066C73.3175 102.066 73.2271 102.066 73.1254 102.066C72.097 102.145 71.3173 103.049 71.3964 104.077C71.4642 105.004 72.1987 105.727 73.1254 105.806H73.1367Z" fill="url(#paint31_linear_20_819)"/>
</g>
<defs>
<radialGradient id="paint0_radial_20_819" cx="0" cy="0" r="1" gradientUnits="userSpaceOnUse" gradientTransform="translate(119.549 57.3551) scale(47.7759 47.7757)">
<stop stop-color="white"/>
<stop offset="1" stop-color="#69CDBC"/>
</radialGradient>
<linearGradient id="paint1_linear_20_819" x1="251.571" y1="95.7601" x2="497.243" y2="100.043" gradientUnits="userSpaceOnUse">
<stop stop-color="#166BC1"/>
<stop offset="0.45" stop-color="#27CABF"/>
<stop offset="1" stop-color="#C2FF42"/>
</linearGradient>
<linearGradient id="paint2_linear_20_819" x1="251.593" y1="94.7882" x2="497.266" y2="99.0598" gradientUnits="userSpaceOnUse">
<stop stop-color="#166BC1"/>
<stop offset="0.45" stop-color="#27CABF"/>
<stop offset="1" stop-color="#C2FF42"/>
</linearGradient>
<linearGradient id="paint3_linear_20_819" x1="251.605" y1="93.8729" x2="497.277" y2="98.1557" gradientUnits="userSpaceOnUse">
<stop stop-color="#166BC1"/>
<stop offset="0.45" stop-color="#27CABF"/>
<stop offset="1" stop-color="#C2FF42"/>
</linearGradient>
<linearGradient id="paint4_linear_20_819" x1="251.616" y1="92.9575" x2="497.3" y2="97.2404" gradientUnits="userSpaceOnUse">
<stop stop-color="#166BC1"/>
<stop offset="0.45" stop-color="#27CABF"/>
<stop offset="1" stop-color="#C2FF42"/>
</linearGradient>
<linearGradient id="paint5_linear_20_819" x1="251.639" y1="92.0083" x2="497.311" y2="96.2799" gradientUnits="userSpaceOnUse">
<stop stop-color="#166BC1"/>
<stop offset="0.45" stop-color="#27CABF"/>
<stop offset="1" stop-color="#C2FF42"/>
</linearGradient>
<linearGradient id="paint6_linear_20_819" x1="251.65" y1="91.1156" x2="497.322" y2="95.3985" gradientUnits="userSpaceOnUse">
<stop stop-color="#166BC1"/>
<stop offset="0.45" stop-color="#27CABF"/>
<stop offset="1" stop-color="#C2FF42"/>
</linearGradient>
<linearGradient id="paint7_linear_20_819" x1="406.365" y1="34.6133" x2="416.558" y2="8.45274" gradientUnits="userSpaceOnUse">
<stop stop-color="#166BC1"/>
<stop offset="0.45" stop-color="#27CABF"/>
<stop offset="1" stop-color="#C2FF42"/>
</linearGradient>
<linearGradient id="paint8_linear_20_819" x1="406.387" y1="34.6134" x2="416.58" y2="8.45286" gradientUnits="userSpaceOnUse">
<stop stop-color="#C11687"/>
<stop offset="0.45" stop-color="#A427CA"/>
<stop offset="1" stop-color="#42E2FF"/>
</linearGradient>
<linearGradient id="paint9_linear_20_819" x1="0" y1="52.6602" x2="223.93" y2="52.6602" gradientUnits="userSpaceOnUse">
<stop stop-color="#C11687"/>
<stop offset="0.45" stop-color="#A427CA"/>
<stop offset="1" stop-color="#42E2FF"/>
</linearGradient>
<linearGradient id="paint10_linear_20_819" x1="57.0222" y1="75.8148" x2="163.947" y2="75.8148" gradientUnits="userSpaceOnUse">
<stop stop-color="#FFEF51"/>
<stop offset="0.18" stop-color="#96FF00"/>
<stop offset="0.37" stop-color="#00D5E6"/>
<stop offset="0.53" stop-color="#5C93FD"/>
<stop offset="0.69" stop-color="#FF7CFF"/>
<stop offset="0.84" stop-color="#FF49B4"/>
<stop offset="0.88" stop-color="#FF5D97"/>
<stop offset="0.96" stop-color="#FF8064"/>
<stop offset="1" stop-color="#FF8E50"/>
</linearGradient>
<linearGradient id="paint11_linear_20_819" x1="57.0222" y1="81.4424" x2="163.947" y2="81.4424" gradientUnits="userSpaceOnUse">
<stop stop-color="#FFEF51"/>
<stop offset="0.18" stop-color="#96FF00"/>
<stop offset="0.37" stop-color="#00D5E6"/>
<stop offset="0.53" stop-color="#5C93FD"/>
<stop offset="0.69" stop-color="#FF7CFF"/>
<stop offset="0.84" stop-color="#FF49B4"/>
<stop offset="0.88" stop-color="#FF5D97"/>
<stop offset="0.96" stop-color="#FF8064"/>
<stop offset="1" stop-color="#FF8E50"/>
</linearGradient>
<linearGradient id="paint12_linear_20_819" x1="57.022" y1="87.0587" x2="163.947" y2="87.0587" gradientUnits="userSpaceOnUse">
<stop stop-color="#FFEF51"/>
<stop offset="0.18" stop-color="#96FF00"/>
<stop offset="0.37" stop-color="#00D5E6"/>
<stop offset="0.53" stop-color="#5C93FD"/>
<stop offset="0.69" stop-color="#FF7CFF"/>
<stop offset="0.84" stop-color="#FF49B4"/>
<stop offset="0.88" stop-color="#FF5D97"/>
<stop offset="0.96" stop-color="#FF8064"/>
<stop offset="1" stop-color="#FF8E50"/>
</linearGradient>
<linearGradient id="paint13_linear_20_819" x1="-8.44222e-05" y1="92.6864" x2="1.12996" y2="92.6864" gradientUnits="userSpaceOnUse">
<stop stop-color="#FFEF51"/>
<stop offset="0.18" stop-color="#96FF00"/>
<stop offset="0.37" stop-color="#00D5E6"/>
<stop offset="0.53" stop-color="#5C93FD"/>
<stop offset="0.69" stop-color="#FF7CFF"/>
<stop offset="0.84" stop-color="#FF49B4"/>
<stop offset="0.88" stop-color="#FF5D97"/>
<stop offset="0.96" stop-color="#FF8064"/>
<stop offset="1" stop-color="#FF8E50"/>
</linearGradient>
<linearGradient id="paint14_linear_20_819" x1="-5.74943e-05" y1="98.3026" x2="1.12999" y2="98.3026" gradientUnits="userSpaceOnUse">
<stop stop-color="#FFEF51"/>
<stop offset="0.18" stop-color="#96FF00"/>
<stop offset="0.37" stop-color="#00D5E6"/>
<stop offset="0.53" stop-color="#5C93FD"/>
<stop offset="0.69" stop-color="#FF7CFF"/>
<stop offset="0.84" stop-color="#FF49B4"/>
<stop offset="0.88" stop-color="#FF5D97"/>
<stop offset="0.96" stop-color="#FF8064"/>
<stop offset="1" stop-color="#FF8E50"/>
</linearGradient>
<linearGradient id="paint15_linear_20_819" x1="57.0219" y1="103.93" x2="163.947" y2="103.93" gradientUnits="userSpaceOnUse">
<stop stop-color="#FFEF51"/>
<stop offset="0.18" stop-color="#96FF00"/>
<stop offset="0.37" stop-color="#00D5E6"/>
<stop offset="0.53" stop-color="#5C93FD"/>
<stop offset="0.69" stop-color="#FF7CFF"/>
<stop offset="0.84" stop-color="#FF49B4"/>
<stop offset="0.88" stop-color="#FF5D97"/>
<stop offset="0.96" stop-color="#FF8064"/>
<stop offset="1" stop-color="#FF8E50"/>
</linearGradient>
<linearGradient id="paint16_linear_20_819" x1="-5.77487e-05" y1="81.4424" x2="1.12999" y2="81.4424" gradientUnits="userSpaceOnUse">
<stop stop-color="#FFEF51"/>
<stop offset="0.18" stop-color="#96FF00"/>
<stop offset="0.37" stop-color="#00D5E6"/>
<stop offset="0.53" stop-color="#5C93FD"/>
<stop offset="0.69" stop-color="#FF7CFF"/>
<stop offset="0.84" stop-color="#FF49B4"/>
<stop offset="0.88" stop-color="#FF5D97"/>
<stop offset="0.96" stop-color="#FF8064"/>
<stop offset="1" stop-color="#FF8E50"/>
</linearGradient>
<linearGradient id="paint17_linear_20_819" x1="57.0221" y1="87.0587" x2="163.947" y2="87.0587" gradientUnits="userSpaceOnUse">
<stop stop-color="#FFEF51"/>
<stop offset="0.18" stop-color="#96FF00"/>
<stop offset="0.37" stop-color="#00D5E6"/>
<stop offset="0.53" stop-color="#5C93FD"/>
<stop offset="0.69" stop-color="#FF7CFF"/>
<stop offset="0.84" stop-color="#FF49B4"/>
<stop offset="0.88" stop-color="#FF5D97"/>
<stop offset="0.96" stop-color="#FF8064"/>
<stop offset="1" stop-color="#FF8E50"/>
</linearGradient>
<linearGradient id="paint18_linear_20_819" x1="57.0222" y1="92.6864" x2="163.947" y2="92.6864" gradientUnits="userSpaceOnUse">
<stop stop-color="#FFEF51"/>
<stop offset="0.18" stop-color="#96FF00"/>
<stop offset="0.37" stop-color="#00D5E6"/>
<stop offset="0.53" stop-color="#5C93FD"/>
<stop offset="0.69" stop-color="#FF7CFF"/>
<stop offset="0.84" stop-color="#FF49B4"/>
<stop offset="0.88" stop-color="#FF5D97"/>
<stop offset="0.96" stop-color="#FF8064"/>
<stop offset="1" stop-color="#FF8E50"/>
</linearGradient>
<linearGradient id="paint19_linear_20_819" x1="3.49966e-05" y1="98.3026" x2="1.13008" y2="98.3026" gradientUnits="userSpaceOnUse">
<stop stop-color="#FFEF51"/>
<stop offset="0.18" stop-color="#96FF00"/>
<stop offset="0.37" stop-color="#00D5E6"/>
<stop offset="0.53" stop-color="#5C93FD"/>
<stop offset="0.69" stop-color="#FF7CFF"/>
<stop offset="0.84" stop-color="#FF49B4"/>
<stop offset="0.88" stop-color="#FF5D97"/>
<stop offset="0.96" stop-color="#FF8064"/>
<stop offset="1" stop-color="#FF8E50"/>
</linearGradient>
<linearGradient id="paint20_linear_20_819" x1="57.0222" y1="103.942" x2="163.947" y2="103.942" gradientUnits="userSpaceOnUse">
<stop stop-color="#FFEF51"/>
<stop offset="0.18" stop-color="#96FF00"/>
<stop offset="0.37" stop-color="#00D5E6"/>
<stop offset="0.53" stop-color="#5C93FD"/>
<stop offset="0.69" stop-color="#FF7CFF"/>
<stop offset="0.84" stop-color="#FF49B4"/>
<stop offset="0.88" stop-color="#FF5D97"/>
<stop offset="0.96" stop-color="#FF8064"/>
<stop offset="1" stop-color="#FF8E50"/>
</linearGradient>
<linearGradient id="paint21_linear_20_819" x1="57.0222" y1="75.8148" x2="163.947" y2="75.8148" gradientUnits="userSpaceOnUse">
<stop stop-color="#166BC1"/>
<stop offset="0.45" stop-color="#27CABF"/>
<stop offset="1" stop-color="#C2FF42"/>
</linearGradient>
<linearGradient id="paint22_linear_20_819" x1="57.0222" y1="81.4424" x2="163.947" y2="81.4424" gradientUnits="userSpaceOnUse">
<stop stop-color="#166BC1"/>
<stop offset="0.45" stop-color="#27CABF"/>
<stop offset="1" stop-color="#C2FF42"/>
</linearGradient>
<linearGradient id="paint23_linear_20_819" x1="57.022" y1="87.0587" x2="163.947" y2="87.0587" gradientUnits="userSpaceOnUse">
<stop stop-color="#166BC1"/>
<stop offset="0.45" stop-color="#27CABF"/>
<stop offset="1" stop-color="#C2FF42"/>
</linearGradient>
<linearGradient id="paint24_linear_20_819" x1="57.0221" y1="92.6864" x2="163.947" y2="92.6864" gradientUnits="userSpaceOnUse">
<stop stop-color="#166BC1"/>
<stop offset="0.45" stop-color="#27CABF"/>
<stop offset="1" stop-color="#C2FF42"/>
</linearGradient>
<linearGradient id="paint25_linear_20_819" x1="57.0221" y1="98.3026" x2="163.947" y2="98.3026" gradientUnits="userSpaceOnUse">
<stop stop-color="#166BC1"/>
<stop offset="0.45" stop-color="#27CABF"/>
<stop offset="1" stop-color="#C2FF42"/>
</linearGradient>
<linearGradient id="paint26_linear_20_819" x1="57.0219" y1="103.93" x2="163.947" y2="103.93" gradientUnits="userSpaceOnUse">
<stop stop-color="#166BC1"/>
<stop offset="0.45" stop-color="#27CABF"/>
<stop offset="1" stop-color="#C2FF42"/>
</linearGradient>
<linearGradient id="paint27_linear_20_819" x1="57.0221" y1="81.4424" x2="163.947" y2="81.4424" gradientUnits="userSpaceOnUse">
<stop stop-color="#166BC1"/>
<stop offset="0.45" stop-color="#27CABF"/>
<stop offset="1" stop-color="#C2FF42"/>
</linearGradient>
<linearGradient id="paint28_linear_20_819" x1="57.0221" y1="87.0587" x2="163.947" y2="87.0587" gradientUnits="userSpaceOnUse">
<stop stop-color="#166BC1"/>
<stop offset="0.45" stop-color="#27CABF"/>
<stop offset="1" stop-color="#C2FF42"/>
</linearGradient>
<linearGradient id="paint29_linear_20_819" x1="57.0222" y1="92.6864" x2="163.947" y2="92.6864" gradientUnits="userSpaceOnUse">
<stop stop-color="#166BC1"/>
<stop offset="0.45" stop-color="#27CABF"/>
<stop offset="1" stop-color="#C2FF42"/>
</linearGradient>
<linearGradient id="paint30_linear_20_819" x1="57.0222" y1="98.3026" x2="163.947" y2="98.3026" gradientUnits="userSpaceOnUse">
<stop stop-color="#166BC1"/>
<stop offset="0.45" stop-color="#27CABF"/>
<stop offset="1" stop-color="#C2FF42"/>
</linearGradient>
<linearGradient id="paint31_linear_20_819" x1="57.0222" y1="103.942" x2="163.947" y2="103.942" gradientUnits="userSpaceOnUse">
<stop stop-color="#166BC1"/>
<stop offset="0.45" stop-color="#27CABF"/>
<stop offset="1" stop-color="#C2FF42"/>
</linearGradient>
<clipPath id="clip0_20_819">
<rect width="526.443" height="124" fill="white"/>
</clipPath>
</defs>
</svg>
